<svg xmlns="http://www.w3.org/2000/svg" xmlns:xlink="http://www.w3.org/1999/xlink" width="51.559814453125" height="47.71282958984375" viewBox="0 0 51.559814453125 47.71282958984375" fill="none">
<g filter="url(#filter_105F82F1-EE52-4C8E-B4C0-3E3077607D3E)">
<path     fill="#12060A" fill-opacity="0.4" d="M16.9346 35.7128L30.6252 35.7128C31.3397 35.7128 32 35.3316 32.3573 34.7128L39.2026 22.8564C39.5598 22.2376 39.5598 21.4752 39.2026 20.8564L32.3573 9C32 8.38121 31.3397 8 30.6252 8L16.9346 8C16.2201 8 15.5598 8.38121 15.2026 9L8.35725 20.8564C8 21.4752 8 22.2376 8.35725 22.8564L15.2026 34.7128C15.5598 35.3316 16.2201 35.7128 16.9346 35.7128Z">
</path>
<path fill-rule="evenodd"  fill="rgba(246, 155, 82, 1)"  d="M30.6252 35.7128L16.9346 35.7128C16.2201 35.7128 15.5598 35.3316 15.2026 34.7128L8.35725 22.8564C8 22.2376 8 21.4752 8.35725 20.8564L15.2026 9C15.5598 8.38121 16.2201 8 16.9346 8L30.6252 8C31.3397 8 32 8.38121 32.3573 9L39.2026 20.8564C39.5598 21.4752 39.5598 22.2376 39.2026 22.8564L32.3573 34.7128C32 35.3316 31.3397 35.7128 30.6252 35.7128ZM37.4705 21.8565L30.6252 33.7128L16.9346 33.7128L10.0893 21.8564L10.0893 21.8564L16.9346 10L16.9346 10L30.6252 9.99998L37.4705 21.8564L37.4705 21.8565Z">
</path>
</g>
<path d="M29.7861 20.9759L29.0713 20.9759L29.0713 18.1174L29.7856 18.1174L29.7856 15.9737L31.2151 15.9737L31.2151 18.1174L31.9298 18.1174L31.9298 20.9759L31.2151 20.9759L31.2151 25.978C31.2151 26.0483 31.2116 26.1183 31.2047 26.1882C31.1979 26.2581 31.1876 26.3274 31.1739 26.3963C31.1602 26.4652 31.1431 26.5332 31.1228 26.6004C31.1024 26.6676 31.0787 26.7336 31.0519 26.7985C31.025 26.8634 30.995 26.9268 30.9619 26.9887C30.9288 27.0506 30.8928 27.1108 30.8537 27.1692C30.8147 27.2275 30.773 27.2839 30.7284 27.3382C30.6839 27.3924 30.6368 27.4444 30.5871 27.494C30.5375 27.5437 30.4855 27.5908 30.4312 27.6353C30.3769 27.6799 30.3206 27.7217 30.2622 27.7607C30.2039 27.7997 30.1437 27.8357 30.0818 27.8688C30.0199 27.9019 29.9564 27.9319 29.8916 27.9588C29.8267 27.9857 29.7607 28.0093 29.6935 28.0297C29.6263 28.0501 29.5583 28.0671 29.4894 28.0808C29.4205 28.0945 29.3511 28.1048 29.2813 28.1117C29.2114 28.1186 29.1413 28.122 29.0711 28.122C29.0009 28.122 28.9309 28.1186 28.861 28.1117C28.7911 28.1048 28.7217 28.0945 28.6528 28.0808C28.584 28.0671 28.516 28.0501 28.4488 28.0297C28.3816 28.0093 28.3155 27.9857 28.2507 27.9588C28.1858 27.9319 28.1224 27.9019 28.0605 27.8688C27.9985 27.8357 27.9384 27.7997 27.88 27.7607C27.8216 27.7217 27.7653 27.6799 27.711 27.6353C27.6567 27.5908 27.6048 27.5437 27.5551 27.494C27.5055 27.4444 27.4584 27.3924 27.4138 27.3382C27.3693 27.2839 27.3275 27.2275 27.2885 27.1692C27.2495 27.1108 27.2134 27.0506 27.1803 26.9887C27.1472 26.9268 27.1172 26.8634 27.0904 26.7985C27.0635 26.7336 27.0399 26.6676 27.0195 26.6004C26.9991 26.5332 26.9821 26.4652 26.9684 26.3963C26.9547 26.3274 26.9444 26.2581 26.9375 26.1882C26.9306 26.1183 26.9272 26.0483 26.9272 25.978L26.9272 23.1196L25.4982 23.1196L25.4982 26.6932L26.2129 26.6932L26.2129 28.1222L16.9228 28.1222L16.9228 26.6923L17.6375 26.6923L17.6375 15.9737C17.6375 15.5791 17.9572 15.2589 18.3518 15.2589L24.7834 15.2589C25.178 15.2589 25.4982 15.5791 25.4982 15.9737L25.4982 21.6906L26.9276 21.6906C26.9744 21.6906 27.0211 21.6929 27.0677 21.6975C27.1143 21.7021 27.1605 21.709 27.2064 21.7181C27.2523 21.7273 27.2977 21.7386 27.3425 21.7522C27.3872 21.7658 27.4313 21.7816 27.4745 21.7995C27.5177 21.8174 27.56 21.8374 27.6013 21.8595C27.6425 21.8816 27.6826 21.9056 27.7216 21.9316C27.7605 21.9576 27.798 21.9855 27.8342 22.0152C27.8704 22.0449 27.905 22.0763 27.9381 22.1094C27.9712 22.1425 28.0026 22.1772 28.0323 22.2133C28.062 22.2495 28.0898 22.2871 28.1158 22.326C28.1418 22.3649 28.1658 22.405 28.1879 22.4463C28.21 22.4876 28.2299 22.5299 28.2479 22.5731C28.2658 22.6164 28.2815 22.6604 28.2951 22.7052C28.3087 22.75 28.32 22.7953 28.3292 22.8412C28.3383 22.8871 28.3451 22.9334 28.3497 22.9799C28.3543 23.0265 28.3566 23.0732 28.3566 23.12L28.3566 25.9785C28.3566 26.0254 28.3612 26.0719 28.3704 26.1179C28.3795 26.164 28.3931 26.2086 28.411 26.252C28.429 26.2954 28.451 26.3366 28.4771 26.3756C28.5031 26.4146 28.5328 26.4507 28.566 26.4839C28.5991 26.5171 28.6352 26.5467 28.6743 26.5728C28.7133 26.5988 28.7545 26.6208 28.7978 26.6388C28.8412 26.6568 28.8859 26.6703 28.9319 26.6795C28.9779 26.6886 29.0244 26.6932 29.0713 26.6932C29.1183 26.6932 29.1648 26.6886 29.2108 26.6795C29.2568 26.6703 29.3015 26.6568 29.3449 26.6388C29.3882 26.6208 29.4294 26.5988 29.4684 26.5728C29.5074 26.5467 29.5435 26.5171 29.5767 26.4839C29.6099 26.4507 29.6395 26.4146 29.6656 26.3756C29.6917 26.3366 29.7137 26.2954 29.7317 26.252C29.7496 26.2086 29.7632 26.164 29.7723 26.1179C29.7815 26.0719 29.7861 26.0254 29.7861 25.9785L29.7861 20.9759ZM21.2107 25.2643L21.2107 22.4058L19.0665 22.4058L21.9249 18.1174L21.9249 20.9759L24.0687 20.9763L21.2107 25.2643Z" fill-rule="evenodd"  fill="#F69B52" >
</path>
<defs>
<filter id="filter_105F82F1-EE52-4C8E-B4C0-3E3077607D3E" x="0" y="0" width="51.559814453125" height="47.71282958984375" filterUnits="userSpaceOnUse" color-interpolation-filters="sRGB">
<feFlood flood-opacity="0" result="feFloodId_105F82F1-EE52-4C8E-B4C0-3E3077607D3E"/>
<feColorMatrix in="SourceAlpha" type="matrix" values="0 0 0 0 0 0 0 0 0 0 0 0 0 0 0 0 0 0 127 0" result="hardAlpha_105F82F1-EE52-4C8E-B4C0-3E3077607D3E"/>
<feOffset dx="2" dy="2"/>
<feGaussianBlur stdDeviation="5"/>
<feComposite in2="hardAlpha_105F82F1-EE52-4C8E-B4C0-3E3077607D3E" operator="out"/>
<feColorMatrix type="matrix" values="0 0 0 0 0.07058823529411765 0 0 0 0 0.023529411764705882 0 0 0 0 0.0392156862745098 0 0 0 0.5 0"/>
<feBlend mode="normal" in2="feFloodId_105F82F1-EE52-4C8E-B4C0-3E3077607D3E" result="dropShadow_1_105F82F1-EE52-4C8E-B4C0-3E3077607D3E"/>
<feBlend mode="normal" in="SourceGraphic" in2="dropShadow_1_105F82F1-EE52-4C8E-B4C0-3E3077607D3E" result="shape_105F82F1-EE52-4C8E-B4C0-3E3077607D3E"/>
</filter>
</defs>
</svg>
