<svg xmlns="http://www.w3.org/2000/svg" xmlns:xlink="http://www.w3.org/1999/xlink" width="51.559814453125" height="47.71282958984375" viewBox="0 0 51.559814453125 47.71282958984375" fill="none">
<g filter="url(#filter_86ABA5E1-ED5B-42A0-B596-0A4ABF187A3C)">
<path     fill="#12060A" fill-opacity="0.4" d="M16.9346 35.7128L30.6252 35.7128C31.3397 35.7128 32 35.3316 32.3573 34.7128L39.2026 22.8564C39.5598 22.2376 39.5598 21.4752 39.2026 20.8564L32.3573 9C32 8.38121 31.3397 8 30.6252 8L16.9346 8C16.2201 8 15.5598 8.38121 15.2026 9L8.35725 20.8564C8 21.4752 8 22.2376 8.35725 22.8564L15.2026 34.7128C15.5598 35.3316 16.2201 35.7128 16.9346 35.7128Z">
</path>
<path fill-rule="evenodd"  fill="rgba(60, 250, 228, 1)"  d="M30.6252 35.7128L16.9346 35.7128C16.2201 35.7128 15.5598 35.3316 15.2026 34.7128L8.35725 22.8564C8 22.2376 8 21.4752 8.35725 20.8564L15.2026 9C15.5598 8.38121 16.2201 8 16.9346 8L30.6252 8C31.3397 8 32 8.38121 32.3573 9L39.2026 20.8564C39.5598 21.4752 39.5598 22.2376 39.2026 22.8564L32.3573 34.7128C32 35.3316 31.3397 35.7128 30.6252 35.7128ZM37.4705 21.8565L30.6252 33.7128L16.9346 33.7128L10.0893 21.8564L10.0893 21.8564L16.9346 10L16.9346 10L30.6252 9.99998L37.4705 21.8564L37.4705 21.8565Z">
</path>
</g>
<path d="M18.4821 16.4206L24.9247 13.3358C25.1317 13.1828 25.4168 13.1828 25.6238 13.3358C25.8549 13.4889 26.0109 13.6419 26.0109 13.954L26.0109 29.3628C26.0109 29.6688 26.0109 29.7438 25.9329 29.8999C25.8549 29.9779 25.7799 30.1309 25.7019 30.1309C25.5458 30.209 25.3898 30.209 25.0777 30.209L17.5579 30.209C17.2488 30.209 17.1708 30.209 17.0178 30.1309C16.9397 30.0529 16.7867 29.9779 16.7867 29.8999C16.7087 29.7468 16.7087 29.6688 16.7087 29.3658L16.7087 19.6524C16.7087 18.8032 16.7867 18.5721 16.8617 18.191C16.9397 17.885 17.0958 17.5729 17.3268 17.3418C17.5549 17.1108 17.7889 16.8827 18.4821 16.4206ZM22.2901 20.1956C22.6022 20.1956 22.9142 20.5046 22.9142 20.9668C22.9142 21.4319 22.5992 21.7379 22.2901 21.7379L20.4266 21.7379C20.1146 21.7379 19.8025 21.4289 19.8025 20.9668C19.8025 20.5016 20.1146 20.1956 20.4266 20.1956L22.2901 20.1956Z" fill-rule="evenodd"  fill="#3CFAE4" >
</path>
<path d="M20.4236 24.4356L22.2871 24.4356C22.5961 24.4356 22.9112 24.1295 22.9112 23.6644C22.9112 23.2053 22.5991 22.8932 22.2871 22.8932L20.4236 22.8932L20.4236 22.8992C20.1925 22.8992 20.0395 23.0522 19.8835 23.2803C19.8054 23.5323 19.8054 23.8024 19.8835 24.0515C19.9645 24.2795 20.1805 24.4326 20.4236 24.4356Z"   fill="#3CFAE4" >
</path>
<path d="M22.29 27.1332C22.5991 27.1332 22.9142 26.8271 22.9142 26.362C22.9142 25.8969 22.6021 25.5909 22.29 25.5909L20.4266 25.5909C20.1145 25.5909 19.8024 25.8969 19.8024 26.362C19.8024 26.8271 20.1145 27.1332 20.4266 27.1332L22.29 27.1332Z"   fill="#3CFAE4" >
</path>
<path d="M27.9494 17.1888C27.7184 17.2668 27.5623 17.4979 27.5623 17.8069L27.5623 29.3657C27.5623 29.6718 27.5623 29.7498 27.6403 29.9029C27.7184 30.0559 27.7934 30.0559 27.8714 30.1339C27.9494 30.212 28.1024 30.212 28.3335 30.212L29.8879 30.212C30.2 30.212 30.275 30.212 30.353 30.1339L30.5841 29.9029C30.6621 29.8279 30.6621 29.6718 30.6621 29.3657L30.6621 21.1197C30.6621 20.4236 30.6621 20.1955 30.5841 19.9645C30.506 19.7364 30.431 19.5053 30.275 19.2683C30.1219 19.0372 30.0439 18.8842 29.5758 18.3441L28.6486 17.3418C28.4565 17.1738 28.1925 17.1168 27.9494 17.1888Z"   fill="#3CFAE4" >
</path>
<defs>
<filter id="filter_86ABA5E1-ED5B-42A0-B596-0A4ABF187A3C" x="0" y="0" width="51.559814453125" height="47.71282958984375" filterUnits="userSpaceOnUse" color-interpolation-filters="sRGB">
<feFlood flood-opacity="0" result="feFloodId_86ABA5E1-ED5B-42A0-B596-0A4ABF187A3C"/>
<feColorMatrix in="SourceAlpha" type="matrix" values="0 0 0 0 0 0 0 0 0 0 0 0 0 0 0 0 0 0 127 0" result="hardAlpha_86ABA5E1-ED5B-42A0-B596-0A4ABF187A3C"/>
<feOffset dx="2" dy="2"/>
<feGaussianBlur stdDeviation="5"/>
<feComposite in2="hardAlpha_86ABA5E1-ED5B-42A0-B596-0A4ABF187A3C" operator="out"/>
<feColorMatrix type="matrix" values="0 0 0 0 0.07058823529411765 0 0 0 0 0.023529411764705882 0 0 0 0 0.0392156862745098 0 0 0 0.5 0"/>
<feBlend mode="normal" in2="feFloodId_86ABA5E1-ED5B-42A0-B596-0A4ABF187A3C" result="dropShadow_1_86ABA5E1-ED5B-42A0-B596-0A4ABF187A3C"/>
<feBlend mode="normal" in="SourceGraphic" in2="dropShadow_1_86ABA5E1-ED5B-42A0-B596-0A4ABF187A3C" result="shape_86ABA5E1-ED5B-42A0-B596-0A4ABF187A3C"/>
</filter>
</defs>
</svg>
